<svg width="40" height="40" viewBox="0 0 40 40" fill="none" xmlns="http://www.w3.org/2000/svg">
<rect width="40" height="40" rx="10" fill="#C4C4C4"/>
<rect width="40" height="40" rx="10" fill="#0038FF"/>
<rect x="12.2374" y="12" width="19.7288" height="12.9492" rx="4" stroke="white" stroke-width="4"/>
<rect x="6" y="13.0508" width="23.7288" height="16.9492" rx="6" fill="white"/>
<path d="M17.7307 26.9212C17.5295 26.9212 17.3596 26.8503 17.2208 26.7084C17.0821 26.5665 17.0127 26.3891 17.0127 26.1763V25.3888L17.3249 25.6761C16.8601 25.6549 16.4577 25.5946 16.1177 25.4952C15.7778 25.3959 15.5003 25.2966 15.2852 25.1973C15.1049 25.1121 14.9765 24.9915 14.9002 24.8354C14.8308 24.6794 14.8031 24.5197 14.8169 24.3566C14.8378 24.1934 14.8967 24.0444 14.9939 23.9096C15.091 23.7748 15.2159 23.6861 15.3685 23.6436C15.528 23.5939 15.7119 23.6152 15.92 23.7074C16.0588 23.7855 16.2669 23.867 16.5444 23.9522C16.8288 24.0302 17.1792 24.0692 17.5954 24.0692C17.8868 24.0692 18.1157 24.0409 18.2822 23.9841C18.4557 23.9273 18.5771 23.8528 18.6465 23.7606C18.7228 23.6613 18.7609 23.5549 18.7609 23.4414C18.7609 23.3349 18.7332 23.2463 18.6777 23.1753C18.6291 23.0973 18.5459 23.0299 18.4279 22.9731C18.31 22.9093 18.147 22.8525 17.9388 22.8029L16.7629 22.5475C16.1177 22.3985 15.6356 22.1502 15.3164 21.8025C15.0043 21.4478 14.8482 20.9902 14.8482 20.4297C14.8482 20.0041 14.9488 19.6245 15.1499 19.2911C15.3581 18.9505 15.646 18.6738 16.0137 18.461C16.3883 18.2482 16.8254 18.1134 17.3249 18.0566L17.0127 18.2375V17.5245C17.0127 17.3117 17.0821 17.1343 17.2208 16.9924C17.3596 16.8505 17.5295 16.7796 17.7307 16.7796C17.9388 16.7796 18.1123 16.8505 18.251 16.9924C18.3898 17.1343 18.4592 17.3117 18.4592 17.5245V18.2375L18.147 18.0353C18.4106 18.0424 18.695 18.0885 19.0003 18.1737C19.3055 18.2517 19.5726 18.3617 19.8016 18.5036C19.9611 18.5887 20.0721 18.7058 20.1346 18.8548C20.2039 19.0037 20.2282 19.1563 20.2074 19.3123C20.1935 19.4613 20.138 19.5961 20.0409 19.7167C19.9507 19.8373 19.8258 19.9189 19.6663 19.9615C19.5137 19.997 19.3298 19.9686 19.1147 19.8764C18.9552 19.8054 18.7748 19.7487 18.5736 19.7061C18.3794 19.6564 18.1296 19.6316 17.8244 19.6316C17.4567 19.6316 17.1722 19.699 16.9711 19.8338C16.7768 19.9686 16.6797 20.1424 16.6797 20.3552C16.6797 20.4971 16.7352 20.6177 16.8462 20.7171C16.9641 20.8093 17.1757 20.8909 17.481 20.9618L18.6673 21.2279C19.3263 21.3769 19.812 21.6252 20.1242 21.9728C20.4433 22.3133 20.6029 22.7567 20.6029 23.303C20.6029 23.7287 20.5023 24.1047 20.3011 24.4311C20.0999 24.7574 19.8189 25.0234 19.4582 25.2292C19.1043 25.4349 18.6916 25.5697 18.2198 25.6336L18.4592 25.3782V26.1763C18.4592 26.3891 18.3898 26.5665 18.251 26.7084C18.1192 26.8503 17.9458 26.9212 17.7307 26.9212Z" fill="#3C3C3C"/>
</svg>
