<svg width="108" height="108" viewBox="0 0 108 108" fill="none" xmlns="http://www.w3.org/2000/svg">
<path fill-rule="evenodd" clip-rule="evenodd" d="M5.48438 29.6367V17.5078C5.48438 10.878 10.8782 5.48438 17.5078 5.48438H29.6367C31.1511 5.48438 32.3789 4.25661 32.3789 2.74219C32.3789 1.22776 31.1511 0 29.6367 0H17.5078C7.85405 0 0 7.85394 0 17.5078V29.6367C0 31.1511 1.22776 32.3789 2.74219 32.3789C4.25661 32.3789 5.48438 31.1511 5.48438 29.6367ZM29.6367 102.516C31.1511 102.516 32.3789 103.743 32.3789 105.258C32.3789 106.772 31.1511 108 29.6367 108H17.5078C7.85405 108 0 100.146 0 90.4921V78.3632C0 76.8488 1.22776 75.621 2.74219 75.621C4.25661 75.621 5.48438 76.8488 5.48438 78.3632V90.4921C5.48438 97.1218 10.8782 102.516 17.5078 102.516H29.6367ZM108 78.3632V90.4921C108 100.146 100.146 108 90.4921 108H78.3632C76.8488 108 75.621 106.772 75.621 105.258C75.621 103.743 76.8488 102.516 78.3632 102.516H90.4921C97.1218 102.516 102.516 97.1218 102.516 90.4921V78.3632C102.516 76.8488 103.743 75.621 105.258 75.621C106.772 75.621 108 76.8488 108 78.3632ZM108 17.5078V29.6367C108 31.1511 106.772 32.3789 105.258 32.3789C103.743 32.3789 102.516 31.1511 102.516 29.6367V17.5078C102.516 10.878 97.1218 5.48438 90.4921 5.48438H78.3632C76.8488 5.48438 75.621 4.25661 75.621 2.74219C75.621 1.22776 76.8488 0 78.3632 0H90.4921C100.146 0 108 7.85394 108 17.5078ZM72.924 79.8221C74.0793 78.7549 74.1507 76.9533 73.0836 75.798C72.0163 74.6427 70.2148 74.5713 69.0595 75.6383C64.9486 79.4356 59.6003 81.5269 53.9998 81.5269C48.3993 81.5269 43.051 79.4356 38.9402 75.6383C37.7846 74.5713 35.9833 74.6428 34.9161 75.798C33.849 76.9533 33.9204 78.7549 35.0757 79.8221C40.2421 84.5941 46.9626 87.2222 53.9998 87.2222C61.037 87.2222 67.7576 84.5941 72.924 79.8221ZM59.6954 40.7112V60.9612C59.6954 64.9739 56.4308 68.2385 52.418 68.2385H50.0977C48.525 68.2385 47.2501 66.9636 47.2501 65.3909C47.2501 63.8181 48.525 62.5432 50.0977 62.5432H52.418C53.2904 62.5432 54.0001 61.8335 54.0001 60.9612V40.7112C54.0001 39.1384 55.275 37.8635 56.8477 37.8635C58.4205 37.8635 59.6954 39.1384 59.6954 40.7112ZM79.3125 48.6741V40.553C79.3125 39.0676 78.1084 37.8635 76.6231 37.8635C75.1378 37.8635 73.9336 39.0676 73.9336 40.553V48.6741C73.9336 50.1594 75.1378 51.3635 76.6231 51.3635C78.1084 51.3635 79.3125 50.1594 79.3125 48.6741ZM29.3204 48.6741C29.3204 50.1594 30.5245 51.3635 32.0098 51.3635C33.4952 51.3635 34.6993 50.1594 34.6993 48.6741V40.553C34.6993 39.0676 33.4952 37.8635 32.0098 37.8635C30.5245 37.8635 29.3204 39.0676 29.3204 40.553V48.6741Z" fill="#F2F2F2"/>
</svg>
